<?xml version="1.0" encoding="iso-8859-1"?>
<!-- Generator: Adobe Illustrator 19.0.0, SVG Export Plug-In . SVG Version: 6.00 Build 0)  -->
<svg version="1.1" id="Layer_1" xmlns="http://www.w3.org/2000/svg" xmlns:xlink="http://www.w3.org/1999/xlink" x="0px" y="0px"
	 viewBox="0 0 512 512" style="enable-background:new 0 0 512 512;" xml:space="preserve">
<g>
	<g>
		<g>
			<path d="M91.621,309.895c0-4.466-3.62-8.084-8.084-8.084H29.642c-7.43,0-13.474-6.044-13.474-13.474v-43.116
				c0-7.43,6.044-13.474,13.474-13.474H205.8c5.697,0,10.795,3.599,12.685,8.955c7.21,20.433,26.617,34.161,48.294,34.161h97.011
				c28.231,0,51.2-22.969,51.2-51.2c0-52.006-42.31-94.316-94.316-94.316h-84.449c6.18-19.89,18.51-37.435,35.399-50.126
				c6.182-4.644,12.893-8.562,19.95-11.644c12.594-5.502,26.011-8.292,39.879-8.292h32.337c54.978,0,99.705,44.727,99.705,99.705
				v32.337c0,4.466,3.618,8.084,8.084,8.084c4.466,0,8.084-3.618,8.084-8.084v-32.337c0-63.892-51.981-115.874-115.874-115.874
				h-32.337c-16.11,0-31.705,3.246-46.352,9.645c-8.206,3.585-16.007,8.138-23.189,13.534
				c-20.967,15.752-35.886,37.956-42.506,63.052h-49.638c-4.465,0-8.084,3.619-8.084,8.084c0,4.466,3.62,8.084,8.084,8.084h55.901
				c0.107,0.002,0.211,0.002,0.317,0h94.688c43.091,0,78.147,35.056,78.147,78.147c0,19.317-15.715,35.032-35.032,35.032h-97.011
				c-14.834,0-28.115-9.393-33.047-23.373c-0.435-1.234-0.948-2.428-1.533-3.574h56.138c4.466,0,8.084-3.618,8.084-8.084
				c0-4.466-3.619-8.084-8.084-8.084H48.92c4.059-39.305,37.372-70.063,77.732-70.063h10.779c4.465,0,8.084-3.618,8.084-8.084
				c0-4.466-3.62-8.084-8.084-8.084h-10.779c-49.284,0-89.859,37.996-93.973,86.232h-3.038C13.297,215.579,0,228.877,0,245.221
				v43.116c0,16.344,13.297,29.642,29.642,29.642h53.895C88.001,317.979,91.621,314.36,91.621,309.895z"/>
			<path d="M105.849,123.959c0.382,0,0.766-0.027,1.156-0.082c4.419-0.633,7.49-4.729,6.858-9.148
				c-0.453-3.166-0.682-6.407-0.682-9.634c0-49.033,39.892-88.926,88.926-88.926h75.453c17.964,0,34.85,5.925,48.836,17.134
				c3.483,2.792,8.57,2.231,11.364-1.253c2.792-3.483,2.231-8.571-1.253-11.364C319.863,7.346,298.928,0,277.558,0h-75.453
				C144.156,0,97.011,47.145,97.011,105.095c0,3.99,0.285,8.002,0.846,11.925C98.433,121.051,101.891,123.959,105.849,123.959z"/>
			<path d="M97.011,406.905c0,4.466,3.62,8.084,8.084,8.084h52.147l4.505,36.035c0.511,4.09,3.994,7.082,8.012,7.082
				c0.334,0,0.673-0.022,1.012-0.064c4.43-0.554,7.573-4.595,7.019-9.025l-4.253-34.028h74.379v35.032
				c0,4.466,3.62,8.084,8.084,8.084c4.466,0,8.084-3.619,8.084-8.084v-35.032h56.589c4.466,0,8.084-3.618,8.084-8.084
				c0-4.466-3.618-8.084-8.084-8.084h-56.589v-35.032c0-4.466-3.619-8.084-8.084-8.084c-4.465,0-8.084,3.618-8.084,8.084v35.032
				h-76.4l-4.505-36.035c-0.554-4.429-4.597-7.573-9.024-7.019c-4.43,0.554-7.573,4.595-7.019,9.025l4.253,34.029h-50.126
				C100.63,398.821,97.011,402.44,97.011,406.905z"/>
			<path d="M354.014,355.768c-4.432-0.556-8.471,2.589-9.025,7.019l-10.779,86.232c-0.554,4.43,2.589,8.471,7.019,9.025
				c0.341,0.042,0.679,0.064,1.013,0.064c4.017,0,7.5-2.992,8.012-7.082l10.779-86.232
				C361.586,360.362,358.443,356.321,354.014,355.768z"/>
			<path d="M406.905,414.989c4.466,0,8.084-3.618,8.084-8.084c0-4.466-3.618-8.084-8.084-8.084h-32.337
				c-4.466,0-8.084,3.618-8.084,8.084c0,4.466,3.619,8.084,8.084,8.084H406.905z"/>
			<path d="M331.453,495.832H94.183c-6.875,0-12.632-5.152-13.391-11.985c-0.022-0.194-0.05-0.386-0.085-0.578L54.351,340.761
				c-0.812-4.39-5.032-7.293-9.42-6.479c-4.39,0.812-7.292,5.029-6.479,9.42L64.76,485.945C66.57,500.821,79.164,512,94.183,512
				h237.269c4.466,0,8.084-3.618,8.084-8.084C339.537,499.45,335.918,495.832,331.453,495.832z"/>
			<path d="M482.358,215.579h-43.116c-4.466,0-8.084,3.618-8.084,8.084c0,4.466,3.618,8.084,8.084,8.084h43.116
				c7.43,0,13.474,6.044,13.474,13.474v43.116c0,7.43-6.044,13.474-13.474,13.474h-10.637c-0.101-0.002-0.202-0.002-0.302,0H115.874
				c-4.465,0-8.084,3.618-8.084,8.084c0,4.466,3.62,8.084,8.084,8.084h345.988l-30.569,165.29c-0.036,0.192-0.065,0.384-0.085,0.578
				c-0.759,6.833-6.516,11.985-13.392,11.985h-54.026c-4.466,0-8.084,3.619-8.084,8.084c0,4.466,3.618,8.084,8.084,8.084h54.026
				c15.022,0,27.615-11.18,29.425-26.056l31.064-167.965h4.053c16.344,0,29.642-13.298,29.642-29.642v-43.116
				C512,228.877,498.702,215.579,482.358,215.579z"/>
		</g>
	</g>
</g>
<g>
</g>
<g>
</g>
<g>
</g>
<g>
</g>
<g>
</g>
<g>
</g>
<g>
</g>
<g>
</g>
<g>
</g>
<g>
</g>
<g>
</g>
<g>
</g>
<g>
</g>
<g>
</g>
<g>
</g>
</svg>
